<?xml version="1.0" encoding="UTF-8"?> <svg xmlns="http://www.w3.org/2000/svg" width="490" height="442" viewBox="0 0 490 442" fill="none"> <path fill-rule="evenodd" clip-rule="evenodd" d="M465.801 102.517H456.651C446.213 103.023 436.345 107.431 429.001 114.867C417.201 85.5166 402.351 52.2666 393.101 38.8666C376.551 15.0166 352.501 8.41661 335.851 5.51661C308.394 1.31012 280.622 -0.496704 252.851 0.116612C225.13 -0.487991 197.409 1.31881 170.001 5.51661C153.351 8.41661 129.301 15.0166 112.801 38.7666C103.501 52.1166 88.7015 85.4166 76.9015 114.767C69.558 107.331 59.6901 102.923 49.2515 102.417H40.1015C33.7336 102.533 27.6613 105.125 23.1718 109.642C18.6823 114.16 16.1284 120.248 16.0515 126.617V144.167C16.1795 150.757 18.8545 157.042 23.5154 161.703C28.1764 166.364 34.4611 169.039 41.0515 169.167H51.7015H53.0515H55.2515C61.7419 169.151 68.1807 170.32 74.2515 172.617C78.4547 163.233 85.2752 155.261 93.8954 149.656C102.516 144.051 112.569 141.051 122.851 141.017H139.501C149.821 140.999 159.924 143.968 168.593 149.567C177.261 155.165 184.123 163.153 188.351 172.567C197.984 168.976 208.446 168.231 218.491 170.421C228.535 172.61 237.737 177.642 245.001 184.917L256.801 196.717C264.105 204.004 269.143 213.25 271.308 223.338C273.473 233.425 272.672 243.924 269.001 253.567C278.415 257.795 286.403 264.657 292.001 273.325C297.6 281.994 300.569 292.097 300.551 302.417V319.067C300.564 324.141 299.857 329.191 298.451 334.067H392.101V352.667C392.167 359.211 394.795 365.468 399.423 370.096C404.05 374.723 410.308 377.351 416.851 377.417H448.851C455.395 377.351 461.653 374.723 466.28 370.096C470.908 365.468 473.536 359.211 473.601 352.667V234.167C474.192 212.886 468.222 191.939 456.501 174.167C455.368 172.467 454.168 170.8 452.901 169.167H454.301H464.951C471.542 169.039 477.827 166.364 482.487 161.703C487.148 157.042 489.823 150.757 489.951 144.167V126.617C489.848 120.249 487.269 114.171 482.761 109.672C478.253 105.173 472.17 102.607 465.801 102.517ZM410.001 227.467C410.001 232.572 407.973 237.468 404.363 241.078C400.753 244.688 395.857 246.717 390.751 246.717H345.651C340.976 246.726 336.456 245.034 332.937 241.956C329.418 238.877 327.139 234.623 326.527 229.988C325.915 225.352 327.011 220.653 329.61 216.766C332.209 212.879 336.134 210.071 340.651 208.867L385.951 196.967C388.796 196.234 391.771 196.162 394.647 196.757C397.524 197.351 400.227 198.596 402.548 200.397C404.869 202.197 406.748 204.504 408.04 207.142C409.332 209.78 410.003 212.679 410.001 215.617V227.467Z" fill="white"></path> </svg> 